<svg width="228" height="81" viewBox="0 0 228 81" fill="none" xmlns="http://www.w3.org/2000/svg">
<path fill-rule="evenodd" clip-rule="evenodd" d="M41.5 77C52.8777 77 63.0394 71.7942 69.7334 63.6345C72.3951 56.2929 70.6121 47.2663 66.4551 37.9486C66.2771 37.5496 66.095 37.1508 65.9091 36.7522C57.1232 32.9902 49.3714 30.7568 42.5867 29.6512C41.7125 33.0938 40.7071 36.6121 39.5634 40.1155C35.7146 51.9051 30.2414 63.7067 22.7837 71.8425C28.2563 75.1176 34.6583 77 41.5 77ZM82 40.5C82 51.4115 77.6849 61.3152 70.6681 68.5976C69.82 69.978 68.794 71.2988 67.5728 72.5484L66.9873 71.9762C60.0271 77.6191 51.1584 81 41.5 81C19.6623 81 1.86146 63.7164 1.03034 42.0823L0.622375 41.9066C0.739274 41.6352 0.866501 41.361 1.00413 41.0847C1.00138 40.8901 0.999994 40.6952 0.999994 40.5C0.999994 18.1325 19.1325 0 41.5 0C63.8675 0 82 18.1325 82 40.5ZM4.99999 40.5C4.99999 40.4175 5.00027 40.3351 5.00081 40.2528C8.09908 35.8934 14.3414 31.109 24.4477 29.4169C28.7678 28.6936 33.8022 28.536 39.5985 29.2285C38.7594 32.5068 37.7992 35.8528 36.7116 39.1845C32.8422 51.0371 27.4188 62.5203 20.2407 70.1731C11.0118 63.5494 4.99999 52.7268 4.99999 40.5ZM23.9523 26.4581C15.4891 27.875 9.36441 31.3587 5.3762 35.24C7.92598 17.5739 23.1278 4 41.5 4C42.3505 4 43.1942 4.02909 44.0302 4.08633L44.0056 4.37067C43.5114 10.0816 42.3215 17.8741 40.3223 26.2942C34.1164 25.5196 28.6745 25.6675 23.9523 26.4581ZM77.9764 39.1757C77.3517 21.6594 64.3843 7.28691 47.5078 4.49207C54.1709 11.9895 62.6035 22.9991 68.1355 34.4474C71.2944 35.83 74.5739 37.4009 77.9764 39.1757ZM73.9706 57.1874C76.2515 52.7582 77.6527 47.802 77.9434 42.5496C75.2086 41.0929 72.5583 39.7716 69.9911 38.5768C72.5719 44.8069 74.1971 51.2081 73.9706 57.1874ZM43.3024 26.7283C49.4441 27.7487 56.2854 29.6461 63.8647 32.6622C58.9534 23.4307 52.3204 14.6275 46.643 8.0572C46.0225 13.3529 44.9293 19.8307 43.3024 26.7283ZM104.064 26.48L111.808 46.192H96.256L104.064 26.48ZM119.232 65.008H126.656L107.776 17.264H100.8L81.344 65.008H88.704L93.632 52.784H114.368L119.232 65.008ZM144.516 65.776C146.564 65.776 148.399 65.4347 150.021 64.752L149.508 58.8C148.399 59.3547 147.098 59.632 145.605 59.632C143.343 59.632 142.212 58.3947 142.212 55.92V36.016H148.997V29.68H142.212V19.824L135.301 22.064V29.68H129.796V36.016H135.301V54.128C135.301 58.2667 135.749 61.0613 136.645 62.512C137.839 64.688 140.463 65.776 144.516 65.776ZM155.99 64.752H162.967V13.808H155.99V64.752ZM190.999 61.68V65.072H197.398C197.143 63.4933 197.014 60.7413 197.014 56.816V41.904C197.014 37.5093 196.012 34.2667 194.007 32.176C192.129 30.256 189.143 29.296 185.047 29.296C181.121 29.296 177.537 30.128 174.294 31.792V38.064C177.708 36.2293 181.164 35.312 184.663 35.312C188.545 35.312 190.486 37.4027 190.486 41.584V42.736H189.527C176.727 42.736 170.327 47.088 170.327 55.792C170.327 58.3093 171.052 60.4427 172.503 62.192C174.551 64.5813 177.708 65.776 181.975 65.776C185.9 65.776 188.908 64.4107 190.999 61.68ZM189.143 48.688H190.486V50.032C190.486 56.5173 187.82 59.76 182.486 59.76C178.945 59.76 177.174 58.224 177.174 55.152C177.174 52.3787 178.604 50.5227 181.462 49.584C183.255 48.9867 185.814 48.688 189.143 48.688ZM216.85 35.248C219.367 35.248 222.034 35.8453 224.85 37.04L225.553 31.024C222.908 29.872 219.921 29.296 216.594 29.296C213.607 29.296 211.068 29.9787 208.977 31.344C206.375 33.0507 205.074 35.6533 205.074 39.152C205.074 42.0107 206.375 44.4213 208.977 46.384C209.02 46.4267 209.639 46.7893 210.833 47.472C212.028 48.1547 213.842 49.1573 216.273 50.48C218.876 51.9307 220.178 53.5093 220.178 55.216C220.178 56.5387 219.665 57.6053 218.641 58.416C217.532 59.312 216.124 59.76 214.417 59.76C211.431 59.76 208.38 58.992 205.266 57.456L204.626 64.048C207.441 65.2 210.77 65.776 214.609 65.776C217.767 65.776 220.476 65.072 222.738 63.664C225.596 61.8293 227.025 59.12 227.025 55.536C227.025 52.336 225.703 49.648 223.057 47.472C221.948 46.576 219.452 45.168 215.57 43.248C212.882 41.9253 211.538 40.6453 211.538 39.408C211.538 36.6347 213.308 35.248 216.85 35.248Z" fill="#0C65E3"/>
</svg>
