<svg width="35" height="35" viewBox="0 0 61 54" fill="none" xmlns="http://www.w3.org/2000/svg">
<path d="M21.1283 53.8868C22.0526 53.489 22.7 52.5699 22.7 51.5V44.48C22.7 44.2239 22.7208 43.9574 22.7533 43.687C22.7351 43.6922 22.7182 43.6961 22.7 43.7C22.7 43.7 18.8 43.7 18.02 43.7C16.07 43.7 14.38 42.92 13.6 41.36C12.69 39.67 12.3 36.81 9.96 35.25C9.57 34.99 9.83 34.6 10.61 34.6C11.39 34.73 13.08 35.77 14.12 37.2C15.29 38.63 16.46 39.8 18.54 39.8C21.7731 39.8 23.506 39.6375 24.5486 39.0785C25.7628 37.2728 27.4437 35.9 29.2 35.9V35.8675C21.8316 35.6309 17.1243 33.1817 14.9325 29.4C10.168 29.4546 6.0197 29.9265 3.6524 30.3191C3.577 29.894 3.512 29.4663 3.4561 29.036C5.7922 28.6512 9.752 28.1949 14.3046 28.1078C14.159 27.749 14.0329 27.3811 13.9263 27.0041C9.362 26.7727 5.423 26.9534 3.2832 27.1302C3.2572 26.6986 3.2221 26.2683 3.2169 25.8315C5.3606 25.656 9.193 25.4805 13.6403 25.6872C13.5376 25.0372 13.4713 24.3729 13.4713 23.6813C13.4713 21.4713 14.2513 19.1313 15.6813 17.1813C15.0313 14.9713 14.1213 10.2913 15.9413 8.60131C19.4513 8.60131 21.9213 10.2913 23.0913 11.3313C25.3 10.42 27.77 9.90001 30.5 9.90001C33.23 9.90001 35.7 10.42 37.78 11.33C38.95 10.29 41.42 8.60001 44.93 8.60001C46.88 10.42 45.84 15.1 45.19 17.18C46.62 19.13 47.4 21.34 47.27 23.68C47.27 24.3092 47.2115 24.9163 47.127 25.5117C51.6757 25.2881 55.6121 25.4675 57.7922 25.6443C57.7896 26.0824 57.7493 26.5101 57.7259 26.943C55.5536 26.7636 51.5184 26.579 46.8592 26.8273C46.7435 27.2641 46.6031 27.6892 46.4367 28.1013C51.0465 28.1611 55.1012 28.607 57.5491 28.997C57.4932 29.4286 57.4282 29.8563 57.3528 30.2801C54.8672 29.8823 50.6305 29.4169 45.8101 29.3935C43.6456 33.1349 39.0241 35.575 31.8 35.8597V35.9C35.18 35.9 38.3 40.97 38.3 44.48V51.5C38.3 52.5699 38.9474 53.489 39.8717 53.8868C51.781 49.9452 60.4 38.7132 60.4 25.5C60.4 9.01341 46.9879 -4.39999 30.5 -4.39999C14.0121 -4.39999 0.6 9.01341 0.6 25.5C0.6 38.7132 9.219 49.9452 21.1283 53.8868Z" fill="black"/>
</svg>
